<?xml version="1.0" encoding="UTF-8" standalone="no"?>
<!-- Created with Inkscape (http://www.inkscape.org/) -->

<svg
   width="118.10943mm"
   height="45.88792mm"
   viewBox="0 0 118.10943 45.88792"
   version="1.1"
   id="svg1"
   inkscape:version="1.4.3 (0d15f75, 2025-12-25)"
   sodipodi:docname="logo.svg"
   inkscape:export-filename="logo.svg"
   inkscape:export-xdpi="96"
   inkscape:export-ydpi="96"
   xmlns:inkscape="http://www.inkscape.org/namespaces/inkscape"
   xmlns:sodipodi="http://sodipodi.sourceforge.net/DTD/sodipodi-0.dtd"
   xmlns="http://www.w3.org/2000/svg"
   xmlns:svg="http://www.w3.org/2000/svg">
  <sodipodi:namedview
     id="namedview1"
     pagecolor="#ffffff"
     bordercolor="#000000"
     borderopacity="0.25"
     inkscape:showpageshadow="2"
     inkscape:pageopacity="0.0"
     inkscape:pagecheckerboard="0"
     inkscape:deskcolor="#d1d1d1"
     inkscape:document-units="mm"
     inkscape:zoom="1.179549"
     inkscape:cx="214.91265"
     inkscape:cy="156.83961"
     inkscape:window-width="1512"
     inkscape:window-height="845"
     inkscape:window-x="1920"
     inkscape:window-y="131"
     inkscape:window-maximized="0"
     inkscape:current-layer="text1-8" />
  <defs
     id="defs1" />
  <g
     inkscape:label="Ebene 1"
     inkscape:groupmode="layer"
     id="layer1"
     transform="translate(-11.877459,-76.191099)">
    <g
       id="text1-8"
       style="font-size:24.8715px;line-height:1;font-family:Spectral;-inkscape-font-specification:'Spectral, Normal';letter-spacing:0.240588px;word-spacing:0px;stroke-width:2.07264"
       aria-label="RÜDIGER&#10;SCHÄFER"
       transform="translate(1.82013)">
      <path
         style="letter-spacing:0.446808px"
         d="m 10.181686,96.958801 v -0.397944 l 1.98972,-0.99486 V 81.936415 l -1.98972,-0.99486 v -0.397944 h 6.416847 q 2.611508,0 4.103798,1.094346 1.517161,1.069475 1.517161,2.959709 0,1.392804 -0.945117,2.512021 -0.945117,1.094346 -2.512021,1.666391 l 4.725585,6.889405 1.641519,0.895374 v 0.397944 h -3.581496 l -4.825071,-7.536064 h -2.31305 v 6.118389 l 1.865363,1.019731 v 0.397944 z m 5.844803,-15.047257 h -1.616648 v 6.14326 h 1.765877 q 1.566904,0 2.586636,-0.870502 1.044603,-0.895374 1.044603,-2.263307 0,-1.392804 -1.019732,-2.188692 -0.99486,-0.820759 -2.760736,-0.820759 z m 19.000919,15.295972 q -1.840491,0 -3.307909,-0.696402 -1.467419,-0.696402 -2.31305,-2.138949 -0.845631,-1.467418 -0.845631,-3.780468 v -8.655282 l -1.98972,-0.99486 v -0.397944 h 6.217875 v 0.397944 l -1.98972,0.99486 v 8.28221 q 0,2.064334 0.646659,3.283038 0.646659,1.218703 1.741005,1.741005 1.119218,0.522301 2.48715,0.522301 1.094346,0 2.014592,-0.472558 0.945117,-0.472559 1.49229,-1.49229 0.572044,-1.044603 0.572044,-2.710994 v -9.202455 l -2.48715,-0.945117 v -0.397944 h 6.193004 v 0.397944 l -1.964849,0.969989 v 8.680153 q 0,2.31305 -0.845631,3.780468 -0.845631,1.442547 -2.313049,2.138949 -1.442547,0.696402 -3.30791,0.696402 z m -2.039463,-18.57901 q -0.522301,0 -0.870502,-0.348201 -0.348201,-0.348201 -0.348201,-0.870503 0,-0.522301 0.348201,-0.870502 0.348201,-0.348201 0.870502,-0.348201 0.522302,0 0.870503,0.348201 0.348201,0.348201 0.348201,0.870502 0,0.522302 -0.348201,0.870503 -0.348201,0.348201 -0.870503,0.348201 z m 4.576356,0 q -0.522301,0 -0.870502,-0.348201 -0.348201,-0.348201 -0.348201,-0.870503 0,-0.522301 0.348201,-0.870502 0.348201,-0.348201 0.870502,-0.348201 0.522302,0 0.870503,0.348201 0.348201,0.348201 0.348201,0.870502 0,0.522302 -0.348201,0.870503 -0.348201,0.348201 -0.870503,0.348201 z m 9.574649,18.330295 v -0.397944 l 1.98972,-0.99486 V 81.936415 l -1.98972,-0.99486 v -0.397944 h 7.28735 q 2.760736,0 4.675842,0.969989 1.939977,0.969988 2.934837,2.66125 1.019731,1.691262 1.019731,3.830211 0,1.939977 -0.67153,3.581496 -0.646659,1.616648 -1.840491,2.835351 -1.193832,1.193832 -2.81048,1.865363 -1.591776,0.67153 -3.48201,0.67153 z m 6.715305,-15.047257 h -2.48715 v 13.679325 h 2.860223 q 2.014591,0 3.457138,-0.82076 1.442547,-0.845631 2.213564,-2.362792 0.795888,-1.542033 0.795888,-3.631239 0,-2.089206 -0.795888,-3.631239 -0.795888,-1.542033 -2.337921,-2.387664 -1.517162,-0.845631 -3.705854,-0.845631 z m 13.131263,15.047257 v -0.397944 l 1.98972,-0.99486 V 81.936415 l -1.98972,-0.99486 v -0.397944 h 6.217875 v 0.397944 l -1.98972,0.99486 v 13.629582 l 1.98972,0.99486 v 0.397944 z m 18.428892,0.248715 q -2.387664,0 -4.253027,-1.044603 Q 79.296021,95.11831 78.201675,93.327562 77.1322,91.511943 77.1322,89.198893 q 0,-1.915105 0.671531,-3.531753 0.696402,-1.616647 1.915105,-2.810479 1.243575,-1.218704 2.835351,-1.890234 1.616648,-0.671531 3.432267,-0.671531 1.31819,0 2.213564,0.149229 0.920245,0.149229 1.641519,0.422816 0.746145,0.273586 1.442547,0.621787 l 0.124357,4.103798 H 91.010497 L 89.39385,82.806918 q -1.044603,-0.721274 -1.790748,-0.99486 -0.721274,-0.273587 -1.666391,-0.273587 -1.915105,0 -3.407395,0.845631 -1.49229,0.82076 -2.337921,2.288178 -0.845631,1.442547 -0.845631,3.283038 0,2.462279 0.895374,4.228155 0.920245,1.741005 2.462278,2.661251 1.542033,0.920245 3.432267,0.920245 0.82076,0 1.566905,-0.09949 0.771016,-0.09949 1.591776,-0.422815 V 91.13887 L 87.0808,90.14401 v -0.397944 h 6.168132 v 0.397944 l -1.716133,1.069475 v 3.904825 q -1.144089,0.945117 -2.835351,1.517162 -1.666391,0.572044 -3.283038,0.572044 z m 11.141544,-0.248715 v -0.397944 l 1.98972,-0.99486 V 81.936415 l -1.98972,-0.99486 v -0.397944 h 12.162166 v 4.277898 h -0.39795 l -1.54203,-2.909965 h -5.99403 v 5.894545 h 4.22815 l 1.24358,-2.064334 h 0.39794 v 5.446858 h -0.39794 l -1.24358,-2.014591 h -4.22815 v 6.416847 h 6.69043 l 1.54204,-3.158681 h 0.39794 v 4.526613 z m 16.663036,0 v -0.397944 l 1.98972,-0.99486 V 81.936415 l -1.98972,-0.99486 v -0.397944 h 6.41684 q 2.61151,0 4.1038,1.094346 1.51716,1.069475 1.51716,2.959709 0,1.392804 -0.94511,2.512021 -0.94512,1.094346 -2.51203,1.666391 l 4.72559,6.889405 1.64152,0.895374 v 0.397944 h -3.5815 l -4.82507,-7.536064 h -2.31305 v 6.118389 l 1.86536,1.019731 v 0.397944 z m 5.8448,-15.047257 h -1.61665 v 6.14326 h 1.76588 q 1.5669,0 2.58663,-0.870502 1.04461,-0.895374 1.04461,-2.263307 0,-1.392804 -1.01973,-2.188692 -0.99486,-0.820759 -2.76074,-0.820759 z"
         id="path1" />
      <path
         d="m 15.131115,122.07902 q -1.517162,0 -2.586636,-0.27359 -1.069475,-0.29846 -2.238435,-0.8705 L 10.057329,116.856 h 0.397944 l 1.218703,2.63638 q 0.895374,0.74615 1.741005,1.09435 0.845631,0.32333 1.716134,0.32333 1.467418,0 2.288178,-0.77102 0.845631,-0.77102 0.845631,-2.08921 0,-1.09434 -0.49743,-1.71613 -0.472559,-0.62179 -1.392804,-1.09435 -0.895374,-0.49743 -2.138949,-1.11921 -1.168961,-0.59692 -1.98972,-1.16896 -0.82076,-0.57205 -1.243575,-1.31819 -0.422816,-0.77102 -0.422816,-1.91511 0,-0.84563 0.397944,-1.64152 0.422816,-0.82076 1.119218,-1.46742 0.721273,-0.67153 1.591776,-1.0446 0.895374,-0.39794 1.840491,-0.39794 1.16896,0 2.138949,0.27358 0.969988,0.27359 1.964848,0.77102 l 0.248715,3.97944 h -0.397944 l -1.144089,-2.61151 q -0.870502,-0.64666 -1.517161,-0.92024 -0.646659,-0.29846 -1.49229,-0.29846 -1.094346,0 -1.81562,0.74614 -0.696402,0.74615 -0.696402,1.84049 0,1.26845 0.771017,1.98972 0.771016,0.69641 2.412535,1.49229 1.517162,0.72128 2.48715,1.36794 0.969989,0.64666 1.442547,1.46742 0.472559,0.82075 0.472559,2.0892 0,1.16896 -0.49743,2.06434 -0.49743,0.8705 -1.293318,1.46741 -0.771017,0.59692 -1.691262,0.89538 -0.920246,0.29846 -1.790748,0.29846 z m 16.829882,0 q -2.536893,0 -4.377384,-1.04461 -1.840491,-1.0446 -2.835351,-2.83535 -0.99486,-1.81562 -0.99486,-4.12867 0,-1.76587 0.67153,-3.35765 0.696402,-1.61665 1.865363,-2.86022 1.193832,-1.24358 2.735865,-1.96485 1.566904,-0.72127 3.307909,-0.72127 1.243575,0 2.114078,0.1741 0.870502,0.14923 1.566904,0.42281 0.696402,0.27359 1.367933,0.59692 l 0.124357,4.35251 h -0.447687 l -1.517161,-3.03432 q -0.945117,-0.67153 -1.666391,-0.96999 -0.696402,-0.29846 -1.591776,-0.29846 -1.790748,0 -3.208423,0.89538 -1.392804,0.8705 -2.213564,2.4374 -0.795888,1.56691 -0.795888,3.5815 0,2.36279 0.771017,4.05405 0.795888,1.66639 2.114077,2.56177 1.343061,0.8705 2.959709,0.8705 1.367932,0 2.288178,-0.37307 0.945117,-0.39795 1.66639,-0.87051 l 1.49229,-2.66125 h 0.422816 l -0.273587,3.95457 q -0.721273,0.3482 -1.49229,0.64666 -0.746145,0.27359 -1.716133,0.42282 -0.969989,0.14923 -2.337921,0.14923 z m 9.965341,-0.24872 v -0.39794 l 1.98972,-0.99486 v -13.62958 l -1.98972,-0.99486 v -0.39795 h 6.217875 v 0.39795 l -1.98972,0.99486 v 5.86967 h 8.45631 v -5.86967 l -1.98972,-0.99486 v -0.39795 h 6.217875 v 0.39795 l -1.98972,0.99486 v 13.62958 l 1.98972,0.99486 v 0.39794 h -6.217875 v -0.39794 l 1.98972,-0.99486 v -6.39198 h -8.45631 v 6.39198 l 1.98972,0.99486 v 0.39794 z m 19.590602,0 v -0.39794 l 1.591776,-0.82076 6.367104,-15.32085 h 1.119217 l 6.267618,15.24623 1.666391,0.89538 v 0.39794 h -6.168132 v -0.39794 l 2.188692,-0.84563 -1.865363,-4.60123 h -6.043774 l -1.840491,4.60123 2.089206,0.84563 v 0.39794 z m 5.695573,-7.21273 h 4.924557 l -2.462278,-6.11839 z m 0.547173,-11.11756 q -0.522301,0 -0.870502,-0.34821 -0.348201,-0.3482 -0.348201,-0.8705 0,-0.5223 0.348201,-0.8705 0.348201,-0.3482 0.870502,-0.3482 0.522302,0 0.870503,0.3482 0.348201,0.3482 0.348201,0.8705 0,0.5223 -0.348201,0.8705 -0.348201,0.34821 -0.870503,0.34821 z m 4.576356,0 q -0.522301,0 -0.870502,-0.34821 -0.348201,-0.3482 -0.348201,-0.8705 0,-0.5223 0.348201,-0.8705 0.348201,-0.3482 0.870502,-0.3482 0.522302,0 0.870503,0.3482 0.348201,0.3482 0.348201,0.8705 0,0.5223 -0.348201,0.8705 -0.348201,0.34821 -0.870503,0.34821 z m 8.870997,18.33029 v -0.39794 l 1.98972,-0.99486 v -13.62958 l -1.98972,-0.99486 v -0.39795 h 11.913448 v 4.2779 h -0.397944 l -1.542033,-2.90997 h -5.745316 v 5.89455 h 3.97944 l 1.243575,-2.06434 h 0.397944 v 5.44686 h -0.397944 l -1.243575,-2.01459 h -3.97944 v 6.39198 l 2.238435,0.99486 v 0.39794 z m 15.511696,0 v -0.39794 l 1.98972,-0.99486 v -13.62958 l -1.98972,-0.99486 v -0.39795 H 108.8809 v 4.2779 h -0.39795 l -1.54203,-2.90997 h -5.99403 v 5.89455 h 4.22815 l 1.24358,-2.06434 h 0.39794 v 5.44686 h -0.39794 l -1.24358,-2.01459 h -4.22815 v 6.41685 h 6.69043 l 1.54204,-3.15868 h 0.39794 v 4.52661 z m 16.456815,0 v -0.39794 l 1.98972,-0.99486 v -13.62958 l -1.98972,-0.99486 v -0.39795 h 6.41685 q 2.61151,0 4.1038,1.09435 1.51716,1.06947 1.51716,2.95971 0,1.3928 -0.94512,2.51202 -0.94512,1.09434 -2.51202,1.66639 l 4.72558,6.8894 1.64152,0.89538 v 0.39794 h -3.58149 l -4.82507,-7.53606 h -2.31305 v 6.11839 l 1.86536,1.01973 v 0.39794 z m 5.8448,-15.04726 h -1.61664 v 6.14326 h 1.76587 q 1.56691,0 2.58664,-0.8705 1.0446,-0.89537 1.0446,-2.2633 0,-1.39281 -1.01973,-2.1887 -0.99486,-0.82076 -2.76074,-0.82076 z"
         id="path2" />
    </g>
  </g>
</svg>
